<svg width="130" height="23" viewBox="0 0 130 23" fill="none" xmlns="http://www.w3.org/2000/svg">
<g clip-path="url(#clip0_3440_40738)">
<path fill-rule="evenodd" clip-rule="evenodd" d="M80.1762 0V3.6652H65.6872V8.01762C66.2027 7.67401 66.7181 7.44493 67.2335 7.27313C67.7489 7.10132 68.2643 7.04405 68.8943 7.04405C69.6961 7.04405 70.4405 7.15859 71.0705 7.44493C71.7005 7.73128 72.2731 8.07489 72.7313 8.59031C73.2467 9.10573 73.5903 9.67841 73.8194 10.3656C74.0485 11.1101 74.163 11.8546 74.163 12.7137C74.163 13.2291 74.1057 13.8018 73.9339 14.3744C73.8194 14.9471 73.5903 15.5198 73.304 16.0925C73.0176 16.6652 72.674 17.2379 72.3304 17.7533C71.9868 18.2687 71.5859 18.7269 71.185 19.185L68.7225 16.1498C68.8675 16.0047 68.9896 15.8367 69.1179 15.6602C69.1921 15.558 69.2684 15.453 69.3524 15.348C69.5815 15.0044 69.7533 14.7181 69.9251 14.3744C70.0497 14.1253 70.1442 13.8762 70.2303 13.6489C70.263 13.5627 70.2945 13.4796 70.326 13.4009C70.4405 13.1145 70.4978 12.8282 70.4978 12.5991C70.4978 12.2555 70.4405 11.9119 70.326 11.6828C70.2115 11.3965 70.0397 11.2247 69.8679 11.0529C69.696 10.8811 69.467 10.7665 69.2952 10.7093C69.1234 10.652 68.9516 10.5947 68.7797 10.5947C68.4934 10.5947 68.2071 10.5947 67.978 10.7093C67.9224 10.737 67.8634 10.7648 67.8027 10.7935C67.6133 10.8827 67.407 10.98 67.2335 11.1101C67.1667 11.1602 67.0951 11.2103 67.0214 11.2618C66.8423 11.387 66.6513 11.5205 66.489 11.6828L65.7445 12.4273V20.6167H61.793V15.1189C61.2775 15.4053 60.7049 15.6344 60.0749 15.8634C59.3877 16.0925 58.7577 16.207 58.1278 16.207C57.0969 16.207 56.1806 16.0352 55.4361 15.6916C54.6916 15.348 54.119 14.9471 53.6608 14.4317C53.2027 13.9163 52.859 13.3436 52.6872 12.7137C52.5154 12.0837 52.4009 11.4537 52.4009 10.8811C52.4009 10.1366 52.5727 9.39207 52.859 8.76212C53.1454 8.13216 53.5463 7.55947 54.0617 7.10132C54.5771 6.64317 55.2071 6.29956 55.9515 6.01322C56.696 5.72687 57.4978 5.61233 58.3568 5.61233C59.1013 5.61233 59.7313 5.6696 60.304 5.84141C60.8767 6.01322 61.3921 6.18502 61.793 6.35683V3.6652H52.63H51.5419H48.9648V20.6167H45.0132V3.72247H44.326H43.2379H38.1982V9.44934H34.9339C31.7841 9.44934 30.1806 10.5947 30.1806 12.7709C30.1806 13.3436 30.2952 13.859 30.5242 14.3744C30.7533 14.8899 31.0397 15.2907 31.4405 15.6344C31.8414 15.978 32.2996 16.2643 32.815 16.4361C33.3304 16.6079 33.9031 16.7225 34.533 16.7225C35.9648 16.7225 37.5683 15.9207 39.3436 14.3172L42.1498 17.0661C39.9163 19.4141 37.3392 20.5595 34.4758 20.5595C33.3304 20.5595 32.2996 20.3304 31.326 19.9295C30.3524 19.5286 29.4934 18.9559 28.7489 18.2687C28.0044 17.5815 27.4317 16.7797 26.9736 15.8634C26.5727 14.9471 26.3436 13.9736 26.3436 12.9427C26.3436 11.7401 26.5154 10.7093 26.9163 9.79295C27.3172 8.87665 27.8326 8.13216 28.5198 7.5022C29.2071 6.87225 30.0661 6.4141 31.0397 6.07048C32.0132 5.78414 33.1013 5.61233 34.3612 5.61233V3.6652H26.0573H24.9692H14.1454V6.18502C14.489 6.01322 14.7753 5.95595 15.1189 5.89868C15.4626 5.84141 15.8062 5.84141 16.1498 5.84141C17.1234 5.84141 17.9824 6.01322 18.7841 6.29956C19.5859 6.5859 20.2731 7.04405 20.8458 7.55947C21.4185 8.07489 21.8767 8.76212 22.2203 9.50661C22.5639 10.3084 22.7357 11.1674 22.7357 12.0837C22.7357 12.6564 22.6211 13.2863 22.5066 13.859C22.3348 14.4317 22.1057 15.0617 21.8194 15.6344C21.533 16.207 21.1322 16.7797 20.674 17.3524C20.2159 17.9251 19.6432 18.4405 18.9559 18.9559L16.7797 15.9207C18.0969 14.7181 18.7269 13.4582 18.7269 12.0837C18.7269 11.2819 18.4978 10.652 18.0396 10.1938C17.5815 9.73568 16.9515 9.50661 16.1498 9.50661C15.2908 9.50661 14.6035 9.85022 14.2026 10.4229V20.6167H10.2511V14.489C9.27753 14.9471 8.30397 15.1762 7.21586 15.1762C6.4141 15.1762 5.72687 15.0044 5.03965 14.6608C4.40969 14.3172 3.77974 13.859 3.32159 13.2863C2.86344 12.7137 2.46256 12.0264 2.17621 11.2819C1.88987 10.5374 1.77533 9.73568 1.77533 8.87665V3.6652H0V0H25.0264H26.1145H43.4097H44.4978H51.7709H52.859H80.1762ZM8.99119 11.2247C9.44934 10.9956 9.90749 10.652 10.2511 10.1938V3.6652H5.72687V8.99119C5.72687 9.3348 5.78414 9.67841 5.84141 10.022C5.89868 10.3084 6.01322 10.5947 6.18502 10.8238C6.35683 11.0529 6.52864 11.2819 6.75771 11.3965C6.98679 11.5683 7.21586 11.6256 7.5022 11.6256C8.01762 11.6256 8.53304 11.4537 8.99119 11.2247ZM61.662 10.9219C61.7698 10.8485 61.872 10.7789 61.9648 10.7093V10.4229C61.793 10.3084 61.5639 10.1938 61.3348 10.0793C61.1058 9.96477 60.8195 9.85025 60.5331 9.73572L60.5331 9.73568C60.2467 9.62115 59.9604 9.50661 59.6167 9.44934C59.2731 9.39207 58.9295 9.3348 58.5286 9.3348C57.2115 9.3348 56.5242 9.79295 56.5242 10.7093C56.5242 11.2819 56.696 11.7401 57.0397 12.0264C57.3833 12.3128 57.8414 12.4846 58.3568 12.4846C58.6432 12.4846 58.9295 12.4273 59.2731 12.3128C59.529 12.2275 59.7531 12.1105 59.9927 11.9853C60.0749 11.9424 60.1589 11.8985 60.2467 11.8546C60.323 11.8089 60.4033 11.7631 60.4855 11.7163C60.712 11.5873 60.9529 11.45 61.163 11.2819C61.3334 11.1457 61.5037 11.0297 61.662 10.9219ZM4.92504 22.8502L2.46249 20.4449L4.92504 17.9824L7.3876 20.4449L4.92504 22.8502Z" fill="#55268E"/>
<path fill-rule="evenodd" clip-rule="evenodd" d="M84.1851 15.0044V21.0176H78.1719V0H88.652C93.6344 0 96.1542 2.51982 96.1542 7.5022C96.1542 12.4846 93.6344 15.0044 88.652 15.0044H84.1851ZM84.1851 6.01322V8.99119H88.652C89.6256 8.99119 90.141 8.47577 90.141 7.5022C90.141 6.52863 89.6256 6.01322 88.652 6.01322H84.1851ZM100.335 19.4714L99.8194 20.9604H93.8062L101.308 0H107.322L114.824 20.9604H108.811L108.295 19.4714H100.335ZM106.291 13.4581L104.286 7.44493L102.282 13.4581H106.291ZM116.198 10.4802L116.542 11.0529H116.485V21.0176H122.498V11.2247L122.956 10.5374L130 0H123.242L119.52 5.44053L115.855 0H109.04L116.198 10.4802Z" fill="url(#paint0_linear_3440_40738)"/>
</g>
<defs>
<linearGradient id="paint0_linear_3440_40738" x1="78.1719" y1="21.0176" x2="93.2928" y2="-14.6485" gradientUnits="userSpaceOnUse">
<stop stop-color="#F6462D"/>
<stop offset="1" stop-color="#FFC837"/>
</linearGradient>
<clipPath id="clip0_3440_40738">
<rect width="130" height="22.8502" fill="white"/>
</clipPath>
</defs>
</svg>
