<svg width="576" height="120" viewBox="0 0 576 120" fill="none" xmlns="http://www.w3.org/2000/svg">
<path fill-rule="evenodd" clip-rule="evenodd" d="M350.64 47.88C348.63 44.82 346.04 42.47 342.88 40.79C339.72 39.11 336.36 38.3 332.82 38.3C329.04 38.3 325.53 39.26 322.36 41.18C319.2 43.1 316.71 45.68 314.89 48.89C313.07 52.1 312.16 55.65 312.11 59.47C312.11 63.26 313.02 66.76 314.89 69.97C316.71 73.18 319.25 75.72 322.46 77.59C325.67 79.46 329.22 80.42 333.05 80.42C337.12 80.42 340.91 79.37 344.31 77.21C347.7 75.06 350.34 72.23 352.11 68.68L352.45 68.01L342.17 67.91L342.03 68.06C339.69 70.62 336.64 71.89 332.82 71.89C329.73 71.89 327.13 70.99 325.02 69.19C323.04 67.46 321.85 65.31 321.45 62.7H353.51L353.56 62.29C353.7 61.19 353.8 59.96 353.8 58.62C353.7 54.55 352.65 50.95 350.63 47.87L350.64 47.88ZM321.59 55.35C322.35 52.9 323.7 50.89 325.62 49.34C327.69 47.68 330.16 46.82 333.1 46.82C335.8 46.82 338.23 47.67 340.35 49.39C342.31 50.98 343.66 52.95 344.42 55.35H321.59Z" fill="#0B8C4C"/>
<path fill-rule="evenodd" clip-rule="evenodd" d="M253.88 41.12C250.62 39.25 247.12 38.34 243.35 38.29C239.57 38.29 236.02 39.25 232.81 41.12C229.55 42.99 227.01 45.58 225.14 48.79C223.27 52 222.31 55.55 222.31 59.33C222.31 63.11 223.27 66.66 225.14 69.87C227.01 73.13 229.6 75.67 232.81 77.54C236.02 79.41 239.57 80.37 243.35 80.37C247.13 80.37 250.68 79.41 253.89 77.54C257.15 75.67 259.69 73.08 261.56 69.87C263.43 66.66 264.39 63.11 264.39 59.33C264.39 55.55 263.43 52 261.56 48.79C259.69 45.53 257.1 42.99 253.89 41.12H253.88ZM254.03 65.65C252.94 67.55 251.5 69.08 249.66 70.16C247.82 71.29 245.75 71.83 243.44 71.83C241.13 71.83 239.01 71.24 237.16 70.16C235.27 69.08 233.78 67.55 232.7 65.65C231.58 63.75 231.03 61.64 231.03 59.32C231.03 57 231.57 54.89 232.65 52.99C233.74 51.09 235.22 49.56 237.11 48.48C239 47.35 241.07 46.81 243.43 46.81C245.79 46.81 247.86 47.4 249.71 48.48C251.56 49.56 253.04 51.09 254.08 52.99C255.12 54.89 255.66 57.01 255.66 59.32C255.66 61.63 255.12 63.75 254.04 65.65H254.03Z" fill="#0B8C4C"/>
<path fill-rule="evenodd" clip-rule="evenodd" d="M211.53 43.4C208.24 40.02 203.95 38.34 198.69 38.34C195.67 38.34 192.93 38.96 190.51 40.27C188.32 41.41 186.57 43.1 185.29 45.26C183.98 43.11 182.27 41.45 180.08 40.27C177.66 38.96 174.91 38.34 171.89 38.34C166.58 38.34 162.24 40.02 159 43.4C155.75 46.8 154.14 51.8 154.14 58.29V79.7H162.85V58.29C162.85 54.36 163.68 51.49 165.22 49.64C166.8 47.75 168.96 46.81 171.89 46.81C174.82 46.81 177.02 47.8 178.56 49.64C180.1 51.49 180.89 54.35 180.89 58.29V79.7H189.6V58.29C189.6 54.36 190.43 51.49 191.97 49.64C193.55 47.75 195.71 46.81 198.64 46.81C201.57 46.81 203.77 47.8 205.31 49.64C206.85 51.49 207.64 54.35 207.64 58.29V79.7H216.4V58.29C216.4 51.8 214.79 46.79 211.54 43.4H211.53Z" fill="#0B8C4C"/>
<path fill-rule="evenodd" clip-rule="evenodd" d="M288.17 38.29C282.77 38.29 278.38 39.97 275.09 43.35C271.79 46.75 270.18 51.76 270.18 58.29V79.7H278.94V58.29C278.94 54.36 279.77 51.49 281.36 49.65C282.94 47.76 285.18 46.82 288.22 46.82C291.26 46.82 293.5 47.81 295.08 49.65C296.66 51.5 297.5 54.36 297.5 58.29V79.7H306.17V79.23V58.29C306.17 51.75 304.56 46.74 301.26 43.35C297.97 39.96 293.58 38.29 288.18 38.29H288.17Z" fill="#0B8C4C"/>
<path fill-rule="evenodd" clip-rule="evenodd" d="M499.25 47.88C497.24 44.82 494.65 42.47 491.49 40.79C488.33 39.11 484.97 38.3 481.43 38.3C477.65 38.3 474.14 39.26 470.97 41.18C467.81 43.1 465.32 45.68 463.5 48.89C461.68 52.1 460.77 55.65 460.77 59.43C460.77 63.21 461.68 66.71 463.55 69.92C465.37 73.13 467.91 75.67 471.12 77.54C474.33 79.41 477.88 80.37 481.71 80.37C485.78 80.37 489.57 79.32 492.97 77.16C496.36 75.01 499 72.18 500.77 68.63L501.11 67.96L490.78 67.91L490.64 68.06C488.3 70.62 485.25 71.89 481.43 71.89C478.34 71.89 475.74 70.99 473.63 69.19C471.65 67.46 470.46 65.31 470.06 62.7H502.12L502.17 62.29C502.31 61.19 502.41 59.96 502.41 58.62C502.31 54.55 501.26 50.95 499.24 47.87L499.25 47.88ZM470.2 55.35C470.96 52.9 472.31 50.89 474.23 49.34C476.3 47.68 478.77 46.82 481.71 46.82C484.41 46.82 486.84 47.67 488.96 49.39C490.92 50.98 492.27 52.95 493.03 55.35H470.2Z" fill="#0B8C4C"/>
<path fill-rule="evenodd" clip-rule="evenodd" d="M562.06 38.34V59.75C562.06 63.68 561.27 66.55 559.73 68.4C558.25 70.29 556.05 71.23 553.07 71.23C550.09 71.23 547.94 70.24 546.4 68.4C544.86 66.55 544.03 63.68 544.03 59.75V38.34H535.27V59.75C535.27 63.68 534.48 66.55 532.94 68.4C531.46 70.29 529.26 71.23 526.28 71.23C523.3 71.23 521.15 70.24 519.61 68.4C518.07 66.55 517.24 63.68 517.24 59.75V38.34H508.48V59.75C508.48 66.24 510.09 71.25 513.34 74.64C516.63 78.03 520.92 79.7 526.23 79.7C529.25 79.7 531.99 79.08 534.41 77.77C536.6 76.63 538.35 74.94 539.63 72.78C540.94 74.93 542.65 76.59 544.84 77.77C547.26 79.08 550.01 79.7 553.03 79.7C558.34 79.7 562.63 78.02 565.97 74.64C569.22 71.24 570.83 66.23 570.83 59.74V38.33H562.07L562.06 38.34Z" fill="#0B8C4C"/>
<path fill-rule="evenodd" clip-rule="evenodd" d="M387.12 60.83C387.12 64.61 386.29 67.34 384.71 69.14C383.13 70.94 380.89 71.84 377.85 71.84C374.81 71.84 372.57 70.85 370.99 69.01C369.41 67.16 368.57 64.3 368.57 60.37V38.96H359.81V60.32C359.81 66.86 361.42 71.87 364.72 75.26C368.01 78.65 372.4 80.32 377.8 80.32C379.77 80.32 381.66 79.98 383.4 79.3C384.73 78.77 385.91 78.06 386.93 77.16V78.2C386.93 80.86 386.12 83.03 384.49 84.66C382.91 86.29 380.65 87.15 377.8 87.15C374.41 87.15 371.84 85.65 370 82.6L369.86 82.37H360.17L360.4 83C361.79 86.83 364.04 89.9 367.07 92.21C370.11 94.53 373.68 95.63 377.94 95.68C381.34 95.68 384.42 94.86 387.17 93.27C389.86 91.63 392.03 89.42 393.57 86.63C395.11 83.79 395.88 80.67 395.88 77.27V38.95H387.12V60.83V60.83Z" fill="#0B8C4C"/>
<path fill-rule="evenodd" clip-rule="evenodd" d="M449.66 23.91C448.22 23.91 446.99 24.43 445.96 25.4C444.92 26.39 444.41 27.69 444.41 29.16C444.41 30.63 444.93 31.84 445.95 32.86C446.97 33.88 448.22 34.4 449.65 34.4C451.08 34.4 452.33 33.88 453.32 32.85C454.29 31.83 454.81 30.59 454.81 29.15C454.81 27.71 454.29 26.48 453.32 25.45C452.34 24.42 451.09 23.9 449.65 23.9L449.66 23.91Z" fill="#0B8C4C"/>
<path d="M454.07 38.95H445.31V79.71H454.07V38.95Z" fill="#0B8C4C"/>
<path fill-rule="evenodd" clip-rule="evenodd" d="M420.06 67.85L408.66 38.95H399.45L415.85 79.71H424.31L440.75 38.95H431.54L420.06 67.85Z" fill="#0B8C4C"/>
<path fill-rule="evenodd" clip-rule="evenodd" d="M56.69 3.29999C25.38 3.29999 0 28.68 0 59.99C0 71 3.14999 81.27 8.57999 89.97L28.06 46.29C29.13 43.89 31.51 42.33 34.15 42.33H34.17C36.81 42.33 39.19 43.85 40.28 46.25L51.24 70.4L69.79 29.72C70.88 27.32 73.26 25.8 75.88 25.8H75.92C78.56 25.82 80.94 27.38 82.01 29.8L106.83 86.45C111.01 78.55 113.38 69.55 113.38 60C113.38 28.69 88 3.30998 56.69 3.30998V3.29999Z" fill="#0B8C4C"/>
<path fill-rule="evenodd" clip-rule="evenodd" d="M73.8 53.04L57.28 89.26C56.19 91.66 53.81 93.18 51.19 93.18C48.57 93.18 46.19 91.64 45.1 89.26L36.13 69.47C35.4 67.86 33.1 67.86 32.36 69.49L18.09 101.49C28.21 110.9 41.77 116.67 56.68 116.67C72.84 116.67 87.4 109.9 97.73 99.06L77.58 53.06C76.85 51.43 74.53 51.41 73.79 53.04H73.8Z" fill="#0B8C4C"/>
</svg>
